# xmcd CD database file
#
# Track frame offsets:
#	150
#	9895
#	21982
#	39732
#	57005
#	73947
#	86135
#	99290
#	111570
#	124085
#	138840
#	153320
#	166907
#	182127
#	193435
#	208850
#
# Disc length: 2960 seconds
#
# Revision: 0
# Processed by: cddbd v1.5.1PL0 Copyright (c) Steve Scherf et al.
# Submitted via: CDex 1.51
#
DISCID=e30b8e10
DTITLE=Hanan Harchol - Romance Vol. 4
DYEAR=1999
DGENRE=New Age
TTITLE0=Moon River
TTITLE1=Can't Help Falling In Love With You
TTITLE2=Fuer Elise
TTITLE3=Time To Say Goodbye
TTITLE4=La Paloma
TTITLE5=Mona Lisa
TTITLE6=Killing Me Softly With His Song
TTITLE7=Our Love Is Here To Stay
TTITLE8=Misty
TTITLE9=Where Do I Begin
TTITLE10=Oh Shenandoah
TTITLE11=Let Me Call You Sweetheart
TTITLE12=Desperado
TTITLE13=Strangers In The Night
TTITLE14=Just The Way You Are
TTITLE15=What A Wonderful World
EXTD=YEAR: 1999
EXTT0=
EXTT1=
EXTT2=
EXTT3=
EXTT4=
EXTT5=
EXTT6=
EXTT7=
EXTT8=
EXTT9=
EXTT10=
EXTT11=
EXTT12=
EXTT13=
EXTT14=
EXTT15=
PLAYORDER=
